<svg data-v-423bf9ae="" xmlns="http://www.w3.org/2000/svg" viewBox="0 0 191.6850763533378 60" class="font"><!----><!----><!----><g data-v-423bf9ae="" id="7ac96685-8b90-411e-8b34-079abef3903f" fill="black" transform="matrix(6.110458120026689,0,0,6.110458120026689,-1.8942456067572522,-25.4195038932548)"><path d="M3.64 13.82L3.64 13.82Q3.54 13.92 3.04 13.92L3.04 13.92Q2.69 13.99 2.21 13.80L2.21 13.80L1.92 13.71L1.48 13.50Q1.43 13.50 1.41 13.50Q1.40 13.51 1.34 13.47L1.34 13.47Q1.26 13.40 1.15 13.36L1.15 13.36Q0.87 13.16 0.76 13.01L0.76 13.01Q0.31 12.29 0.31 11.82L0.31 11.82Q0.31 11.76 0.45 11.61L0.45 11.61Q0.73 11.27 1.15 11.27L1.15 11.27Q1.32 11.28 1.41 11.38L1.41 11.38L1.88 11.98Q1.99 12.10 2.13 12.21L2.13 12.21L2.31 12.40L2.59 12.64Q2.65 12.67 2.70 12.67L2.70 12.67Q2.76 12.70 3.01 12.74L3.01 12.74Q3.29 12.67 3.49 12.59L3.49 12.59Q3.61 12.46 3.71 12.39L3.71 12.39L3.91 12.17Q3.93 12.14 4.00 11.94L4.00 11.94Q4.00 11.76 4.01 11.70Q4.02 11.63 3.96 11.35L3.96 11.35Q3.95 11.31 3.77 11.13L3.77 11.13Q3.68 10.96 3.53 10.77L3.53 10.77Q3.44 10.68 2.72 10.32L2.72 10.32L2.45 10.16L2.20 9.94Q2.02 9.88 1.68 9.56L1.68 9.56Q1.54 9.46 1.47 9.41L1.47 9.41Q1.39 9.38 1.01 8.93L1.01 8.93Q1.01 8.90 0.77 8.40L0.77 8.40L0.64 7.85L0.70 7.49Q0.62 7.13 0.64 6.94L0.64 6.94Q0.70 6.86 0.78 6.61L0.78 6.61Q0.74 6.40 1.16 5.78L1.16 5.78Q1.16 5.70 1.78 5.11L1.78 5.11L2.25 4.86L2.48 4.76Q2.60 4.75 2.82 4.72Q3.04 4.69 3.47 4.72Q3.91 4.75 4.02 4.83L4.02 4.83Q4.12 4.87 4.58 5.21L4.58 5.21Q5.19 5.75 5.25 6.19L5.25 6.19Q5.49 6.90 5.28 7.71L5.28 7.71Q5.28 7.77 4.89 7.94L4.89 7.94L4.54 7.92Q4.09 7.87 3.68 7.46L3.68 7.46Q3.57 7.39 3.51 7.07L3.51 7.07Q3.50 6.73 3.37 6.66L3.37 6.66Q3.36 6.65 3.26 6.41L3.26 6.41Q3.02 6.10 2.95 6.10Q2.87 6.10 2.77 6.15L2.77 6.15Q2.27 6.55 2.24 7.06L2.24 7.06Q2.14 7.46 2.49 8.05L2.49 8.05Q2.65 8.27 2.69 8.27L2.69 8.27Q2.77 8.41 3.01 8.62L3.01 8.62L3.21 8.83L3.79 9.27L4.03 9.51L4.30 9.67Q4.52 9.77 4.73 9.94L4.73 9.94Q5.01 10.15 5.42 10.72L5.42 10.72Q5.50 10.85 5.64 11.48L5.64 11.48L5.64 12.03L5.57 12.35Q5.50 12.42 5.42 12.63L5.42 12.63Q5.42 12.64 5.26 13.01L5.26 13.01Q5.22 13.08 4.93 13.30L4.93 13.30Q4.51 13.64 3.99 13.80L3.99 13.80Q3.88 13.83 3.64 13.82ZM9.38 9.42L9.38 9.42Q9.37 9.11 9.24 8.95Q9.11 8.79 8.78 8.76L8.78 8.76Q8.68 8.83 8.52 9.23Q8.36 9.63 8.32 10.08L8.32 10.08Q8.18 10.75 8.18 11.42L8.18 11.42Q8.19 12.11 8.40 12.43L8.40 12.43Q8.43 12.49 8.46 12.47L8.46 12.47Q8.53 12.47 8.68 12.19L8.68 12.19Q9.42 10.85 9.38 9.42ZM9.81 12.10L9.81 12.10L9.60 12.64Q9.60 12.67 9.20 13.24L9.20 13.24Q9.07 13.51 8.73 13.54Q8.39 13.57 8.06 13.47L8.06 13.47Q7.63 13.31 7.41 13.10Q7.18 12.89 6.96 12.40Q6.75 11.90 6.73 11.58L6.73 11.58Q6.66 11.12 6.66 10.99L6.66 10.99L6.66 10.65Q6.66 10.15 6.71 10.07L6.71 10.07Q6.72 10.01 6.78 9.77L6.78 9.77Q6.85 9.18 7.11 8.65L7.11 8.65Q7.63 7.63 8.18 7.60L8.18 7.60L8.25 7.60Q8.27 7.62 8.33 7.62L8.33 7.62L8.51 7.62Q9.00 7.66 9.11 7.70L9.11 7.70Q9.32 7.76 9.48 7.76L9.48 7.76L9.84 7.83Q10.01 7.81 10.28 7.90Q10.56 7.98 10.58 8.02Q10.60 8.06 10.65 8.33Q10.71 8.60 10.73 8.71Q10.75 8.83 10.77 8.96L10.77 8.96Q10.88 9.98 11.13 10.86L11.13 10.86Q11.14 10.91 11.16 10.99Q11.17 11.07 11.26 11.32Q11.34 11.56 11.38 11.73Q11.42 11.90 11.54 12.18L11.54 12.18Q11.62 12.39 11.79 12.67L11.79 12.67Q12.10 13.10 11.47 13.34L11.47 13.34Q11.38 13.37 11.17 13.37L11.17 13.37Q11.13 13.37 10.91 13.23L10.91 13.23Q10.77 13.23 10.64 13.08L10.64 13.08L10.53 13.05Q10.43 12.95 10.36 12.95L10.36 12.95Q10.33 12.92 9.86 11.82L9.86 11.82Q9.81 11.97 9.81 12.10ZM15.41 9.42L15.41 9.42Q15.40 9.11 15.27 8.95Q15.15 8.79 14.81 8.76L14.81 8.76Q14.71 8.83 14.55 9.23Q14.39 9.63 14.35 10.08L14.35 10.08Q14.21 10.75 14.21 11.42L14.21 11.42Q14.22 12.11 14.43 12.43L14.43 12.43Q14.46 12.49 14.49 12.47L14.49 12.47Q14.56 12.47 14.71 12.19L14.71 12.19Q15.46 10.85 15.41 9.42ZM15.85 12.10L15.85 12.10L15.64 12.64Q15.64 12.67 15.23 13.24L15.23 13.24Q15.11 13.51 14.76 13.54Q14.42 13.57 14.10 13.47L14.10 13.47Q13.66 13.31 13.44 13.10Q13.22 12.89 13.00 12.40Q12.78 11.90 12.77 11.58L12.77 11.58Q12.70 11.12 12.70 10.99L12.70 10.99L12.70 10.65Q12.70 10.15 12.74 10.07L12.74 10.07Q12.75 10.01 12.81 9.77L12.81 9.77Q12.88 9.18 13.15 8.65L13.15 8.65Q13.66 7.63 14.21 7.60L14.21 7.60L14.28 7.60Q14.31 7.62 14.36 7.62L14.36 7.62L14.55 7.62Q15.04 7.66 15.15 7.70L15.15 7.70Q15.36 7.76 15.51 7.76L15.51 7.76L15.88 7.83Q16.04 7.81 16.32 7.90Q16.59 7.98 16.61 8.02Q16.63 8.06 16.69 8.33Q16.74 8.60 16.77 8.71Q16.79 8.83 16.80 8.96L16.80 8.96Q16.91 9.98 17.16 10.86L17.16 10.86Q17.18 10.91 17.19 10.99Q17.21 11.07 17.29 11.32Q17.37 11.56 17.42 11.73Q17.46 11.90 17.57 12.18L17.57 12.18Q17.65 12.39 17.82 12.67L17.82 12.67Q18.13 13.10 17.50 13.34L17.50 13.34Q17.42 13.37 17.21 13.37L17.21 13.37Q17.16 13.37 16.94 13.23L16.94 13.23Q16.80 13.23 16.67 13.08L16.67 13.08L16.56 13.05Q16.46 12.95 16.39 12.95L16.39 12.95Q16.37 12.92 15.89 11.82L15.89 11.82Q15.85 11.97 15.85 12.10ZM19.71 8.50L19.71 8.50L19.73 8.37Q19.43 8.34 19.31 8.32Q19.19 8.30 18.93 8.27Q18.66 8.25 18.51 8.19L18.51 8.19Q18.21 8.09 18.17 7.68Q18.13 7.27 18.44 7.17L18.44 7.17Q18.72 7.10 18.83 7.10Q18.94 7.10 19.25 7.07L19.25 7.07Q19.40 6.99 19.67 6.97L19.67 6.97L19.88 6.92Q19.88 6.93 19.99 6.89L19.99 6.89L20.06 6.59Q20.06 6.37 20.19 6.15L20.19 6.15Q20.19 6.05 20.37 5.60L20.37 5.60Q20.37 5.54 20.62 4.79L20.62 4.79Q20.68 4.72 21.04 4.47L21.04 4.47Q21.27 4.35 21.67 4.62L21.67 4.62Q21.90 4.72 21.98 4.89L21.98 4.89Q21.90 4.97 21.90 5.28L21.90 5.28Q21.88 5.38 21.70 6.31L21.70 6.31L21.70 6.71Q21.81 6.72 22.07 6.78Q22.33 6.83 22.69 6.90L22.69 6.90Q23.39 7.04 23.58 7.46L23.58 7.46Q23.65 7.77 23.55 7.90Q23.45 8.02 23.07 8.08L23.07 8.08Q22.76 8.09 22.27 8.09Q21.77 8.09 21.53 8.16L21.53 8.16Q21.50 8.41 21.50 8.55L21.50 8.55L21.49 8.76Q21.49 8.86 21.36 9.80L21.36 9.80Q21.28 9.93 21.22 11.10L21.22 11.10L21.22 12.12Q21.22 12.38 21.27 12.60L21.27 12.60Q21.28 12.91 21.34 13.03L21.34 13.03Q21.34 13.16 21.41 13.57L21.41 13.57Q21.24 13.97 20.85 13.97Q20.47 13.97 20.17 13.69L20.17 13.69L20.02 13.47Q19.98 13.36 19.96 13.31Q19.94 13.27 19.92 13.22L19.92 13.22Q19.82 12.94 19.77 12.87L19.77 12.87Q19.68 12.75 19.68 12.70Q19.68 12.64 19.68 12.56L19.68 12.56Q19.66 12.32 19.61 12.15L19.61 12.15Q19.54 12.08 19.54 11.68L19.54 11.68Q19.57 10.93 19.54 10.82L19.54 10.82Q19.59 10.78 19.56 10.29L19.56 10.29L19.60 9.98Q19.60 9.93 19.66 9.56L19.66 9.56Q19.63 9.51 19.64 9.26Q19.66 9.02 19.68 8.92L19.68 8.92Q19.71 8.75 19.71 8.50ZM25.34 7.99L25.34 7.99L25.19 9.90L25.27 9.70Q25.33 9.58 25.68 9.11L25.68 9.11Q25.68 9.07 26.11 8.37L26.11 8.37L26.35 8.09L26.47 7.90Q26.74 7.69 26.92 7.69L26.92 7.69Q27.30 7.63 27.73 7.91L27.73 7.91Q27.83 7.92 27.99 8.12L27.99 8.12Q28.22 8.30 28.20 8.64L28.20 8.64Q28.20 8.67 28.18 8.72L28.18 8.72Q27.92 10.91 27.90 11.78Q27.89 12.66 28.04 13.24L28.04 13.24Q28.15 13.73 27.68 13.93L27.68 13.93Q27.55 14.01 27.29 13.96L27.29 13.96Q27.05 13.96 26.93 13.89Q26.81 13.83 26.68 13.61L26.68 13.61L26.61 13.33Q26.56 13.22 26.56 13.02L26.56 13.02L26.50 12.61Q26.52 12.59 26.52 12.25L26.52 12.25L26.53 11.89Q26.49 11.69 26.54 11.12L26.54 11.12L26.57 10.51L26.57 10.16Q26.59 10.12 26.49 9.97L26.49 9.97Q26.12 10.25 25.68 11.84L25.68 11.84L25.31 12.96Q25.06 13.86 24.77 13.93L24.77 13.93L24.61 13.96Q24.42 13.96 24.08 13.85L24.08 13.85Q23.81 13.55 23.81 13.26L23.81 13.26Q23.84 13.20 23.83 13.13L23.83 13.13Q23.79 12.95 23.86 12.63L23.86 12.63Q23.84 12.59 23.84 12.52L23.84 12.52L23.86 12.31Q23.83 12.24 23.80 11.91Q23.77 11.58 23.80 11.41L23.80 11.41Q23.77 11.35 23.88 11.03L23.88 11.03Q23.77 10.86 23.76 10.65L23.76 10.65Q23.70 10.08 23.72 9.79Q23.74 9.51 23.74 9.25L23.74 9.25Q23.72 9.00 23.73 8.65L23.73 8.65L23.83 7.52L23.93 6.71Q23.93 6.61 23.86 6.40Q23.80 6.20 23.83 5.92Q23.86 5.64 23.89 5.56Q23.93 5.49 24.00 5.15L24.00 5.15Q24.00 4.87 24.05 4.73L24.05 4.73L24.14 4.48Q24.15 4.38 24.50 4.16L24.50 4.16L24.65 4.16Q25.20 4.20 25.45 4.34L25.45 4.34Q25.56 4.41 25.51 4.83L25.51 4.83Q25.48 5.42 25.47 5.56Q25.45 5.70 25.40 6.78Q25.34 7.85 25.34 7.99ZM30.32 4.66L30.37 4.66Q31.30 4.66 31.68 5.04L31.68 5.04Q31.68 5.28 31.36 6.01L31.36 6.01Q31.30 6.24 31.18 6.38L31.18 6.38L31.00 6.57Q30.93 6.61 30.86 6.61L30.86 6.61Q30.35 6.73 30.07 6.41L30.07 6.41Q30.02 6.33 29.94 6.29Q29.86 6.24 29.82 6.03L29.82 6.03Q29.69 5.85 29.69 5.75L29.69 5.75Q29.67 4.89 30.32 4.66L30.32 4.66ZM30.17 7.97L30.25 7.97Q30.39 7.90 30.91 8.11L30.91 8.11Q30.97 8.16 31.08 8.22L31.08 8.22L31.30 8.40Q31.36 8.46 31.36 8.58L31.36 8.58L31.36 9.81Q31.36 10.09 31.33 10.32L31.33 10.32L31.33 10.40Q31.29 10.98 31.40 12.99L31.40 12.99Q31.44 13.38 31.22 13.47L31.22 13.47Q30.98 13.47 30.91 13.40L30.91 13.40Q30.86 13.37 30.81 13.37L30.81 13.37L30.72 13.37L30.63 13.40Q30.59 13.40 30.48 13.33Q30.37 13.27 30.33 13.20Q30.30 13.13 30.21 13.12L30.21 13.12Q30.06 13.06 30.04 12.91L30.04 12.91Q29.85 12.53 29.84 12.46Q29.83 12.39 29.79 12.31L29.79 12.31L29.72 11.09Q29.72 10.88 29.75 10.77L29.75 10.77L29.75 10.43Q29.76 10.28 29.78 9.86Q29.79 9.45 29.82 9.20L29.82 9.20Q29.79 8.83 29.79 8.71Q29.79 8.58 29.81 8.53L29.81 8.53Q29.65 8.37 29.82 8.11L29.82 8.11Q30.00 7.97 30.17 7.97L30.17 7.97Z"></path></g><!----><!----></svg>