<svg width="307.6667022254792" height="163" xmlns="http://www.w3.org/2000/svg" class="iconAbove">
 <!---->
 <!---->
 <!---->
 <defs>
  <linearGradient y2="0%" x2="100%" y1="0%" x1="0%" id="2e640446-090b-4066-9657-71a38f368271" gradientTransform="rotate(25)">
   <stop stop-color=" rgb(184, 41, 73)" offset="0%"/>
   <stop stop-color=" rgb(233, 184, 76)" offset="100%"/>
  </linearGradient>
 </defs>
 <!---->
 <g>
  <title>Layer 1</title>
  <g fill="url(#2e640446-090b-4066-9657-71a38f368271)" transform="matrix(3.41958 0 0 3.44732 -16.9651 -90.0239)" id="39fdae79-a00d-4e52-b198-810eabc1a713">
   <path id="svg_2" d="m52.502,59.05l-38.653,0l0,-1.229l38.381,0c1.987,0 3.604,-1.616 3.604,-3.604s-1.616,-3.604 -3.604,-3.604l0,-1.229a4.838,4.838 0 0 1 4.833,4.832a4.837,4.837 0 0 1 -4.561,4.824l0,0.01z"/>
   <path id="svg_3" d="m48.537,50.614a4.837,4.837 0 0 1 -4.832,-4.832a4.836,4.836 0 0 1 4.561,-4.824l0,-0.008l38.653,0l0,1.229l-38.382,0a3.608,3.608 0 0 0 -3.604,3.604a3.609,3.609 0 0 0 3.604,3.604l0,1.227zm-38.799,12.545a4.73,4.73 0 0 1 -4.724,-4.724a4.73,4.73 0 0 1 4.724,-4.724a4.73,4.73 0 0 1 4.725,4.724a4.73,4.73 0 0 1 -4.725,4.724zm0,-8.219c-1.927,0 -3.495,1.568 -3.495,3.495s1.568,3.495 3.495,3.495c1.928,0 3.496,-1.568 3.496,-3.495s-1.568,-3.495 -3.496,-3.495z"/>
   <circle id="svg_4" r="4.11" cy="41.564" cx="90.262"/>
   <path id="svg_5" d="m90.262,46.288a4.729,4.729 0 0 1 -4.723,-4.724a4.728,4.728 0 0 1 4.723,-4.724a4.728,4.728 0 0 1 4.724,4.724a4.73,4.73 0 0 1 -4.724,4.724zm0,-8.219c-1.927,0 -3.495,1.568 -3.495,3.495s1.568,3.495 3.495,3.495c1.928,0 3.496,-1.568 3.496,-3.495s-1.569,-3.495 -3.496,-3.495z"/>
   <circle id="svg_6" r="0.648" cy="49.779" cx="48.631"/>
   <path id="svg_7" d="m48.631,51.196c-0.781,0 -1.417,-0.636 -1.417,-1.417s0.636,-1.417 1.417,-1.417s1.417,0.636 1.417,1.417s-0.636,1.417 -1.417,1.417zm0,-1.536a0.12,0.12 0 0 0 -0.119,0.119a0.12,0.12 0 0 0 0.119,0.119a0.12,0.12 0 0 0 0,-0.238z"/>
   <g id="svg_8">
    <circle id="svg_9" r="0.649" cy="50" cx="52.23"/>
    <path id="svg_10" d="m52.229,51.417a1.42,1.42 0 0 1 -1.417,-1.417a1.42,1.42 0 0 1 1.417,-1.417c0.781,0 1.417,0.636 1.417,1.417c0,0.78 -0.635,1.417 -1.417,1.417zm0,-1.536a0.118,0.118 0 1 0 0,0.237a0.118,0.118 0 1 0 0,-0.237z"/>
   </g>
  </g>
 </g>
</svg>